<?xml version="1.0" encoding="UTF-8" standalone="no"?>
<!DOCTYPE svg PUBLIC "-//W3C//DTD SVG 1.1//EN" "http://www.w3.org/Graphics/SVG/1.1/DTD/svg11.dtd">
<svg version="1.1" xmlns="http://www.w3.org/2000/svg" xmlns:xlink="http://www.w3.org/1999/xlink" preserveAspectRatio="xMidYMid meet" viewBox="0 0 700 700" width="700" height="700"><defs><path d="M700 350C700 543.17 543.17 700 350 700C156.83 700 0 543.17 0 350C0 156.83 156.83 0 350 0C543.17 0 700 156.83 700 350Z" id="a7iJ2IDqK0"></path><path d="M419.86 357.76L559.58 357.76L559.58 590.63L419.86 590.63L419.86 590.63L419.86 357.76ZM109.38 481.96L249.09 481.96L249.09 590.63L109.38 590.63L109.38 590.63L109.38 481.96ZM264.62 419.86L404.33 419.86L404.33 590.63L264.62 590.63L264.62 590.63L264.62 419.86ZM544.05 575.1L544.05 559.58L435.38 559.58L435.38 575.1L435.38 575.1L544.05 575.1ZM233.57 575.1L233.57 559.58L124.9 559.58L124.9 575.1L124.9 575.1L233.57 575.1ZM295.67 544.05L295.67 559.58L280.14 559.58L280.14 575.1L388.81 575.1L388.81 559.58L311.19 559.58L311.19 544.05L388.81 544.05L388.81 528.53L280.14 528.53L280.14 544.05L280.14 544.05L295.67 544.05ZM233.57 544.05L233.57 528.53L124.9 528.53L124.9 544.05L124.9 544.05L233.57 544.05ZM544.05 544.05L544.05 528.53L435.38 528.53L435.38 544.05L435.38 544.05L544.05 544.05ZM544.05 513L544.05 497.48L435.38 497.48L435.38 513L435.38 513L544.05 513ZM233.57 513L233.57 497.48L124.9 497.48L124.9 513L124.9 513L233.57 513ZM388.81 513L388.81 497.48L280.14 497.48L280.14 513L280.14 513L388.81 513ZM388.81 481.96L388.81 466.43L280.14 466.43L280.14 481.96L280.14 481.96L388.81 481.96ZM544.05 481.96L544.05 466.43L435.38 466.43L435.38 481.96L435.38 481.96L544.05 481.96ZM388.81 450.91L388.81 435.38L280.14 435.38L280.14 450.91L280.14 450.91L388.81 450.91ZM513 419.86L513 435.38L435.38 435.38L435.38 450.91L544.05 450.91L544.05 435.38L528.53 435.38L528.53 419.86L544.05 419.86L544.05 404.33L435.38 404.33L435.38 419.86L435.38 419.86L513 419.86ZM590.55 227.71L590.45 228.65L590.32 229.58L590.15 230.49L589.95 231.4L589.71 232.28L589.44 233.16L589.13 234.02L588.79 234.86L588.42 235.69L588.02 236.5L587.59 237.29L587.13 238.06L586.64 238.82L586.13 239.55L585.58 240.26L585.01 240.95L584.42 241.62L583.8 242.26L583.15 242.88L582.48 243.48L581.79 244.05L581.08 244.59L580.35 245.11L579.6 245.6L578.82 246.06L578.03 246.49L577.22 246.89L576.39 247.26L575.55 247.6L574.69 247.9L573.82 248.18L572.93 248.41L572.03 248.62L571.11 248.79L570.18 248.92L569.25 249.02L568.3 249.07L567.34 249.09L566.38 249.07L565.43 249.02L564.49 248.92L563.57 248.79L562.65 248.62L561.75 248.41L560.86 248.18L559.99 247.9L559.13 247.6L558.28 247.26L557.46 246.89L556.65 246.49L555.86 246.06L555.08 245.6L554.33 245.11L553.6 244.59L552.88 244.05L552.19 243.48L551.53 242.88L550.88 242.26L550.26 241.62L549.67 240.95L549.1 240.26L548.55 239.55L548.04 238.82L547.55 238.06L547.09 237.29L546.66 236.5L546.26 235.69L545.89 234.86L545.55 234.02L545.24 233.16L544.97 232.28L544.73 231.4L544.53 230.49L544.36 229.58L544.23 228.65L544.13 227.71L544.07 226.76L544.05 225.81L544.05 197.97L405.69 336.35L335.26 297.22L145.27 449.21L135.57 437.08L333.69 278.59L402.98 317.08L559.58 160.5L559.58 225.81L559.58 226.13L559.6 226.44L559.63 226.75L559.68 227.06L559.73 227.37L559.8 227.67L559.88 227.96L559.97 228.26L560.07 228.54L560.19 228.82L560.31 229.1L560.44 229.37L560.59 229.63L560.74 229.89L560.9 230.14L561.07 230.39L561.26 230.62L561.45 230.85L561.64 231.08L561.85 231.29L562.07 231.5L562.29 231.7L562.52 231.89L562.76 232.07L563 232.24L563.25 232.4L563.51 232.56L563.77 232.7L564.04 232.83L564.32 232.96L564.6 233.07L564.89 233.17L565.18 233.26L565.47 233.34L565.78 233.41L566.08 233.47L566.39 233.51L566.7 233.54L567.02 233.56L567.34 233.57L567.66 233.56L567.98 233.54L568.29 233.51L568.6 233.47L568.9 233.41L569.2 233.34L569.5 233.26L569.79 233.17L570.08 233.07L570.36 232.96L570.63 232.83L570.9 232.7L571.17 232.56L571.43 232.4L571.68 232.24L571.92 232.07L572.16 231.89L572.39 231.7L572.61 231.5L572.83 231.29L573.03 231.08L573.23 230.85L573.42 230.62L573.6 230.39L573.77 230.14L573.94 229.89L574.09 229.63L574.23 229.37L574.37 229.1L574.49 228.82L574.6 228.54L574.7 228.26L574.8 227.96L574.88 227.67L574.94 227.37L575 227.06L575.04 226.75L575.08 226.44L575.09 226.13L575.1 225.81L575.1 124.9L474.19 124.9L473.87 124.91L473.56 124.92L473.24 124.96L472.94 125L472.63 125.06L472.33 125.13L472.03 125.2L471.74 125.3L471.45 125.4L471.17 125.51L470.9 125.63L470.63 125.77L470.36 125.91L470.11 126.06L469.85 126.23L469.61 126.4L469.37 126.58L469.14 126.77L468.92 126.97L468.71 127.18L468.5 127.39L468.3 127.61L468.11 127.84L467.93 128.08L467.76 128.33L467.59 128.58L467.44 128.83L467.3 129.1L467.16 129.37L467.04 129.64L466.93 129.93L466.83 130.21L466.74 130.5L466.66 130.8L466.59 131.1L466.53 131.4L466.49 131.71L466.46 132.03L466.44 132.34L466.43 132.66L466.44 132.98L466.46 133.3L466.49 133.61L466.53 133.92L466.59 134.22L466.66 134.52L466.74 134.82L466.83 135.11L466.93 135.4L467.04 135.68L467.16 135.95L467.3 136.22L467.44 136.49L467.59 136.75L467.76 137L467.93 137.24L468.11 137.48L468.3 137.71L468.5 137.93L468.71 138.15L468.92 138.35L469.14 138.55L469.37 138.74L469.61 138.92L469.85 139.1L470.11 139.26L470.36 139.41L470.63 139.56L470.9 139.69L471.17 139.81L471.45 139.92L471.74 140.03L472.03 140.12L472.33 140.2L472.63 140.27L472.94 140.32L473.24 140.37L473.56 140.4L473.87 140.42L474.19 140.42L547.27 140.42L397.69 290L334.98 250.81L121.93 418.15L112.34 405.94L224.36 317.95L222.61 318.2L218.55 318.62L214.44 318.87L210.28 318.95L206.13 318.87L202.02 318.62L197.95 318.2L193.94 317.63L189.97 316.9L186.06 316.01L182.21 314.98L178.42 313.8L174.7 312.47L171.04 311.01L167.46 309.41L163.95 307.67L160.52 305.81L157.17 303.81L153.9 301.69L150.73 299.46L147.64 297.1L144.65 294.63L141.76 292.05L138.96 289.36L136.28 286.57L133.7 283.68L131.23 280.69L128.87 277.6L126.63 274.42L124.51 271.16L122.52 267.81L120.66 264.38L118.92 260.87L117.32 257.28L115.85 253.63L114.53 249.9L113.35 246.11L112.31 242.26L111.43 238.35L110.7 234.39L110.12 230.37L109.71 226.31L109.46 222.2L109.38 218.04L109.46 213.89L109.71 209.78L110.12 205.72L110.7 201.7L111.43 197.73L112.31 193.82L113.35 189.97L114.53 186.18L115.85 182.46L117.32 178.81L118.92 175.22L120.66 171.71L122.52 168.28L124.51 164.93L126.63 161.67L128.87 158.49L131.23 155.4L133.7 152.41L136.28 149.52L138.96 146.73L141.76 144.04L144.65 141.46L147.64 138.99L150.73 136.63L153.9 134.39L157.17 132.28L160.52 130.28L163.95 128.42L167.46 126.68L171.04 125.08L174.7 123.61L178.42 122.29L182.21 121.11L186.06 120.07L189.97 119.19L193.94 118.46L197.95 117.89L202.02 117.47L206.13 117.22L210.28 117.14L214.44 117.22L218.55 117.47L222.61 117.89L226.63 118.46L230.59 119.19L234.5 120.07L238.35 121.11L242.14 122.29L245.87 123.61L249.52 125.08L253.11 126.68L256.61 128.42L260.05 130.28L263.4 132.28L266.66 134.39L269.84 136.63L272.92 138.99L275.91 141.46L278.81 144.04L281.6 146.73L284.29 149.52L286.87 152.41L289.34 155.4L291.69 158.49L293.93 161.67L296.05 164.93L298.04 168.28L299.91 171.71L301.64 175.22L303.25 178.81L304.71 182.46L306.04 186.18L307.22 189.97L308.25 193.82L309.14 197.73L309.87 201.7L310.44 205.72L310.85 209.78L311.11 213.89L311.19 218.04L311.11 222.2L310.85 226.31L310.44 230.37L309.87 234.39L309.14 238.35L308.25 242.26L307.22 246.11L306.04 249.9L304.71 253.63L304 255.4L333.97 231.86L395.45 270.29L509.79 155.95L474.19 155.95L473.24 155.93L472.29 155.87L471.35 155.77L470.42 155.64L469.51 155.47L468.6 155.27L467.72 155.03L466.84 154.76L465.98 154.45L465.14 154.11L464.31 153.74L463.5 153.34L462.71 152.91L461.94 152.45L461.18 151.96L460.45 151.45L459.74 150.9L459.05 150.33L458.38 149.74L457.74 149.12L457.12 148.47L456.52 147.81L455.95 147.12L455.41 146.4L454.89 145.67L454.4 144.92L453.94 144.14L453.51 143.35L453.11 142.54L452.74 141.72L452.4 140.87L452.1 140.01L451.82 139.14L451.59 138.25L451.38 137.35L451.21 136.43L451.08 135.51L450.98 134.57L450.93 133.62L450.91 132.66L450.92 132.02L450.97 131.38L451.04 130.75L451.14 130.12L451.27 129.49L451.43 128.86L451.62 128.24L451.84 127.62L452.09 127L452.36 126.39L452.67 125.78L453 125.17L453.37 124.57L453.76 123.97L454.18 123.37L454.63 122.77L455.11 122.18L455.62 121.59L456.16 121L456.73 120.42L457.33 119.84L457.95 119.26L458.61 118.69L459.29 118.12L460 117.55L460.75 116.98L461.52 116.42L462.32 115.86L463.15 115.3L464.01 114.75L464.89 114.2L465.81 113.65L466.76 113.1L467.73 112.56L468.74 112.02L469.77 111.49L470.83 110.96L471.92 110.43L473.04 109.9L474.19 109.38L590.63 109.38L590.63 225.81L590.61 226.76L590.61 226.76L590.55 227.71ZM544.05 388.81L544.05 373.29L435.38 373.29L435.38 388.81L435.38 388.81L544.05 388.81ZM199.85 133.3L196.45 133.78L193.1 134.4L189.79 135.15L186.53 136.02L183.32 137.02L180.17 138.14L177.08 139.38L174.05 140.74L171.08 142.21L168.18 143.79L165.34 145.47L162.58 147.26L159.89 149.16L157.28 151.15L154.75 153.24L152.3 155.42L149.94 157.7L147.66 160.06L145.48 162.51L143.39 165.04L141.4 167.65L139.5 170.34L137.71 173.1L136.02 175.94L134.44 178.84L132.98 181.81L131.62 184.84L130.38 187.94L129.26 191.09L128.26 194.29L127.39 197.55L126.64 200.86L126.02 204.21L125.53 207.61L125.18 211.05L124.97 214.53L124.9 218.04L124.97 221.56L125.18 225.04L125.53 228.48L126.02 231.87L126.64 235.23L127.39 238.54L128.26 241.8L129.26 245L130.38 248.15L131.62 251.25L132.98 254.28L134.44 257.25L136.02 260.15L137.71 262.99L139.5 265.75L141.4 268.44L143.39 271.05L145.48 273.58L147.66 276.03L149.94 278.39L152.3 280.66L154.75 282.85L157.28 284.94L159.89 286.93L162.58 288.82L165.34 290.62L168.18 292.3L171.08 293.88L174.05 295.35L177.08 296.71L180.17 297.95L183.32 299.07L186.53 300.07L189.79 300.94L193.1 301.69L196.45 302.31L199.85 302.79L203.29 303.14L206.77 303.36L210.28 303.43L213.8 303.36L217.27 303.14L220.71 302.79L224.11 302.31L227.47 301.69L230.78 300.94L234.03 300.07L237.24 299.07L240.39 297.95L243.48 296.71L246.52 295.35L249.49 293.88L252.39 292.3L255.22 290.62L257.99 288.82L260.67 286.93L263.29 284.94L265.82 282.85L268.26 280.66L270.63 278.39L272.9 276.03L275.09 273.58L277.18 271.05L279.17 268.44L281.06 265.75L282.85 262.99L284.54 260.15L286.12 257.25L287.59 254.28L288.94 251.25L290.18 248.15L291.3 245L292.3 241.8L293.18 238.54L293.93 235.23L294.55 231.87L295.03 228.48L295.38 225.04L295.59 221.56L295.67 218.04L295.59 214.53L295.38 211.05L295.03 207.61L294.55 204.21L293.93 200.86L293.18 197.55L292.3 194.29L291.3 191.09L290.18 187.94L288.94 184.84L287.59 181.81L286.12 178.84L284.54 175.94L282.85 173.1L281.06 170.34L279.17 167.65L277.18 165.04L275.09 162.51L272.9 160.06L270.63 157.7L268.26 155.42L265.82 153.24L263.29 151.15L260.67 149.16L257.99 147.26L255.22 145.47L252.39 143.79L249.49 142.21L246.52 140.74L243.48 139.38L240.39 138.14L237.24 137.02L234.03 136.02L230.78 135.15L227.47 134.4L224.11 133.78L220.71 133.3L217.27 132.94L213.8 132.73L210.28 132.66L206.77 132.73L203.29 132.94L203.29 132.94L199.85 133.3ZM220.09 165.29L221.23 165.7L222.36 166.15L223.46 166.65L224.54 167.18L225.6 167.75L226.63 168.37L227.63 169.02L228.61 169.71L229.56 170.43L230.48 171.19L231.37 171.99L232.23 172.81L233.05 173.67L233.85 174.56L234.61 175.48L235.33 176.43L236.02 177.41L236.67 178.41L237.29 179.44L237.86 180.5L238.39 181.58L238.89 182.68L239.34 183.81L239.75 184.95L240.11 186.12L240.43 187.3L240.7 188.51L240.92 189.73L241.1 190.96L241.23 192.21L241.3 193.48L241.33 194.76L225.81 194.76L225.79 194.12L225.75 193.49L225.69 192.86L225.6 192.24L225.49 191.63L225.35 191.03L225.2 190.44L225.01 189.86L224.81 189.28L224.58 188.72L224.34 188.17L224.07 187.63L223.78 187.1L223.48 186.59L223.15 186.08L222.81 185.59L222.45 185.12L222.07 184.66L221.67 184.21L221.25 183.79L220.83 183.37L220.38 182.97L219.92 182.59L219.45 182.23L218.96 181.89L218.45 181.56L217.94 181.26L217.41 180.97L216.87 180.7L216.32 180.46L215.76 180.23L215.18 180.03L214.6 179.84L214.01 179.69L213.41 179.55L212.8 179.44L212.18 179.35L211.55 179.29L210.92 179.25L210.28 179.23L209.64 179.25L209.01 179.29L208.39 179.35L207.77 179.44L207.16 179.55L206.56 179.69L205.96 179.84L205.38 180.03L204.81 180.23L204.24 180.46L203.69 180.7L203.15 180.97L202.63 181.26L202.11 181.56L201.61 181.89L201.12 182.23L200.64 182.59L200.18 182.97L199.74 183.37L199.31 183.79L198.9 184.21L198.5 184.66L198.12 185.12L197.76 185.59L197.41 186.08L197.09 186.59L196.78 187.1L196.49 187.63L196.23 188.17L195.98 188.72L195.75 189.28L195.55 189.86L195.37 190.44L195.21 191.03L195.07 191.63L194.96 192.24L194.87 192.86L194.81 193.49L194.77 194.12L194.76 194.76L194.77 195.4L194.81 196.03L194.87 196.66L194.96 197.27L195.07 197.88L195.21 198.48L195.37 199.08L195.55 199.66L195.75 200.23L195.98 200.8L196.23 201.35L196.49 201.89L196.78 202.41L197.09 202.93L197.41 203.43L197.76 203.92L198.12 204.4L198.5 204.86L198.9 205.3L199.31 205.73L199.74 206.14L200.18 206.54L200.64 206.92L201.12 207.28L201.61 207.63L202.11 207.95L202.63 208.26L203.15 208.55L203.69 208.81L204.24 209.06L204.81 209.29L205.38 209.49L205.96 209.67L206.56 209.83L207.16 209.97L207.77 210.08L208.39 210.17L209.01 210.23L209.64 210.27L211.56 210.31L212.83 210.39L214.08 210.51L215.31 210.69L216.53 210.91L217.74 211.19L218.92 211.5L220.09 211.87L221.23 212.27L222.36 212.73L223.46 213.22L224.54 213.75L225.6 214.33L226.63 214.94L227.63 215.59L228.61 216.28L229.56 217L230.48 217.76L231.37 218.56L232.23 219.39L233.05 220.24L233.85 221.13L234.61 222.05L235.33 223L236.02 223.98L236.67 224.99L237.29 226.02L237.86 227.07L238.39 228.15L238.89 229.26L239.34 230.38L239.75 231.53L240.11 232.69L240.43 233.88L240.7 235.08L240.92 236.3L241.1 237.54L241.23 238.79L241.3 240.05L241.33 241.33L241.3 242.61L241.23 243.87L241.1 245.12L240.92 246.36L240.7 247.58L240.43 248.78L240.11 249.97L239.75 251.13L239.34 252.28L238.89 253.41L238.39 254.51L237.86 255.59L237.29 256.64L236.67 257.67L236.02 258.68L235.33 259.66L234.61 260.61L233.85 261.53L233.05 262.42L232.23 263.28L231.37 264.1L230.48 264.9L229.56 265.66L228.61 266.38L227.63 267.07L226.63 267.72L225.6 268.33L224.54 268.91L223.46 269.44L222.36 269.94L221.23 270.39L220.09 270.79L218.92 271.16L218.04 271.39L218.04 287.9L202.52 287.9L202.52 271.39L201.64 271.16L200.48 270.79L199.33 270.39L198.21 269.94L197.1 269.44L196.02 268.91L194.97 268.33L193.94 267.72L192.93 267.07L191.96 266.38L191.01 265.66L190.09 264.9L189.2 264.1L188.34 263.28L187.51 262.42L186.72 261.53L185.96 260.61L185.23 259.66L184.54 258.68L183.89 257.67L183.28 256.64L182.7 255.59L182.17 254.51L181.68 253.41L181.23 252.28L180.82 251.13L180.46 249.97L180.14 248.78L179.87 247.58L179.64 246.36L179.46 245.12L179.34 243.87L179.26 242.61L179.23 241.33L194.76 241.33L194.77 241.97L194.81 242.6L194.87 243.23L194.96 243.85L195.07 244.46L195.21 245.06L195.37 245.65L195.55 246.23L195.75 246.81L195.98 247.37L196.23 247.92L196.49 248.46L196.78 248.99L197.09 249.5L197.41 250.01L197.76 250.49L198.12 250.97L198.5 251.43L198.9 251.87L199.31 252.3L199.74 252.72L200.18 253.11L200.64 253.49L201.12 253.86L201.61 254.2L202.11 254.53L202.63 254.83L203.15 255.12L203.69 255.39L204.24 255.63L204.81 255.86L205.38 256.06L205.96 256.24L206.56 256.4L207.16 256.54L207.77 256.65L208.39 256.74L209.01 256.8L209.64 256.84L210.28 256.85L210.92 256.84L211.55 256.8L212.18 256.74L212.8 256.65L213.41 256.54L214.01 256.4L214.6 256.24L215.18 256.06L215.76 255.86L216.32 255.63L216.87 255.39L217.41 255.12L217.94 254.83L218.45 254.53L218.96 254.2L219.45 253.86L219.92 253.49L220.38 253.11L220.83 252.72L221.25 252.3L221.67 251.87L222.07 251.43L222.45 250.97L222.81 250.49L223.15 250.01L223.48 249.5L223.78 248.99L224.07 248.46L224.34 247.92L224.58 247.37L224.81 246.81L225.01 246.23L225.2 245.65L225.35 245.06L225.49 244.46L225.6 243.85L225.69 243.23L225.75 242.6L225.79 241.97L225.81 241.33L225.79 240.69L225.75 240.06L225.69 239.43L225.6 238.82L225.49 238.21L225.35 237.6L225.2 237.01L225.01 236.43L224.81 235.86L224.58 235.29L224.34 234.74L224.07 234.2L223.78 233.67L223.48 233.16L223.15 232.66L222.81 232.17L222.45 231.69L222.07 231.23L221.67 230.79L221.25 230.36L220.83 229.94L220.38 229.55L219.92 229.17L219.45 228.81L218.96 228.46L218.45 228.14L217.94 227.83L217.41 227.54L216.87 227.27L216.32 227.03L215.76 226.8L215.18 226.6L214.6 226.42L214.01 226.26L213.41 226.12L212.8 226.01L212.18 225.92L211.55 225.86L210.92 225.82L209 225.78L207.74 225.7L206.49 225.58L205.25 225.4L204.03 225.17L202.83 224.9L201.64 224.58L200.48 224.22L199.33 223.81L198.21 223.36L197.1 222.87L196.02 222.34L194.97 221.76L193.94 221.15L192.93 220.5L191.96 219.81L191.01 219.08L190.09 218.32L189.2 217.53L188.34 216.7L187.51 215.84L186.72 214.95L185.96 214.03L185.23 213.08L184.54 212.11L183.89 211.1L183.28 210.07L182.7 209.02L182.17 207.94L181.68 206.83L181.23 205.71L180.82 204.56L180.46 203.4L180.14 202.21L179.87 201.01L179.64 199.79L179.46 198.55L179.34 197.3L179.26 196.04L179.23 194.76L179.26 193.48L179.34 192.21L179.46 190.96L179.64 189.73L179.87 188.51L180.14 187.3L180.46 186.12L180.82 184.95L181.23 183.81L181.68 182.68L182.17 181.58L182.7 180.5L183.28 179.44L183.89 178.41L184.54 177.41L185.23 176.43L185.96 175.48L186.72 174.56L187.51 173.67L188.34 172.81L189.2 171.99L190.09 171.19L191.01 170.43L191.96 169.71L192.93 169.02L193.94 168.37L194.97 167.75L196.02 167.18L197.1 166.65L198.21 166.15L199.33 165.7L200.48 165.29L201.64 164.93L202.52 164.7L202.52 148.19L218.04 148.19L218.04 164.7L218.92 164.93L218.92 164.93L220.09 165.29ZM140.42 210.28L155.95 210.28L155.95 225.81L140.42 225.81L140.42 225.81L140.42 210.28ZM264.62 210.28L280.14 210.28L280.14 225.81L264.62 225.81L264.62 225.81L264.62 210.28Z" id="a1832FvRCp"></path></defs><g><g><g><use xlink:href="#a7iJ2IDqK0" opacity="1" fill="#000000" fill-opacity="1"></use><g><use xlink:href="#a7iJ2IDqK0" opacity="1" fill-opacity="0" stroke="#000000" stroke-width="1" stroke-opacity="1"></use></g></g><g><use xlink:href="#a1832FvRCp" opacity="1" fill="#ffffff" fill-opacity="1"></use><g><use xlink:href="#a1832FvRCp" opacity="1" fill-opacity="0" stroke="#000000" stroke-width="1" stroke-opacity="0"></use></g></g></g></g></svg>